# xmcd
# Copyright (C) 1995-1998 Ti Kan
#
# Track frame offsets:
#       150
#       36177
#       75762
#       103575
#       145254
#       173375
#       203590
#       229289
#       258334
#       279336
#       308696
#
# Disc length: 4510 seconds
#
# Revision: 0
# Processed by: cddbd v1.5.2PL0 Copyright (c) Steve Scherf et al.
# Submitted via: CD-Transfer v1.0
#
DISCID=80119c0b
DTITLE=Various House  - Latezone
DYEAR=06
DGENRE=
TTITLE0=Djaimin Feat. Crystal Give You
TTITLE1=David Vedetta Unidos Para La Musica
TTITLE2=Africanism All Stars Haro
TTITLE3=Liflike % Kris Meance Discopolis
TTITLE4=Fish Go Deep The Cure and The Cause
TTITLE5=Congaman Funk Power
TTITLE6=Instant Funk Don´t Stop It
TTITLE7=Jack Morante Belly Dancers
TTITLE8=Martin Solveig Linda
TTITLE9=Moonlight Vs. Azoto San Salvador
TTITLE10=Valeria Vix Noche Diva
EXTD=
EXTT0=
EXTT1=
EXTT2=
EXTT3=
EXTT4=
EXTT5=
EXTT6=
EXTT7=
EXTT8=
EXTT9=
EXTT10=
PLAYORDER=
